<svg width="20" height="19" viewBox="0 0 20 19" fill="none" xmlns="http://www.w3.org/2000/svg">
<path d="M11.9981 9.5C13.7002 11.1185 16.1423 11.4704 18.5844 11.4704C19.0284 11.4704 19.3244 11.7519 19.3244 12.1741L19.9905 18.2963C20.0645 18.6481 19.6945 19 19.3244 19H19.2504L12.8121 18.3667C12.4421 18.2963 12.0721 18.0148 12.0721 17.663C12.0721 15.3407 11.7021 13.0185 10 11.4C8.29792 13.0185 7.9279 15.3407 7.9279 17.663C7.9279 18.0148 7.63189 18.2963 7.26187 18.3667L0.74956 19H0.675557C0.305539 19 -0.0644786 18.6481 0.00952494 18.2963L0.675557 12.1741C0.675557 11.7519 0.971571 11.4704 1.41559 11.4704C3.85771 11.4704 6.29982 11.1185 8.0019 9.5C6.29982 7.88148 3.85771 7.52963 1.41559 7.52963C0.971571 7.52963 0.675557 7.24815 0.675557 6.82593L0.00952494 0.703704C-0.0644786 0.351852 0.305539 4.61936e-07 0.675557 4.61936e-07H0.74956L7.26187 0.633334C7.63189 0.703704 7.9279 0.985186 7.9279 1.33704C7.9279 3.65926 8.29792 5.98148 10 7.6C11.7021 5.98148 12.0721 3.65926 12.0721 1.33704C12.0721 0.985186 12.4421 0.703704 12.8121 0.633334L19.2504 4.61936e-07H19.3244C19.6945 4.61936e-07 20.0645 0.351852 19.9905 0.703704L19.3244 6.82593C19.3244 7.24815 19.0284 7.52963 18.5844 7.52963C16.1423 7.52963 13.7002 7.88148 11.9981 9.5Z" fill="black"/>
</svg>
