<svg width="26" height="42" viewBox="0 0 26 42" fill="none" xmlns="http://www.w3.org/2000/svg">
<g clip-path="url(#clip0_32_13)">
<path d="M14.5039 28.3567L14.437 32.7707C14.437 33.0382 14.3702 33.2389 14.3702 33.5064C14.3702 34.9777 14.437 36.449 14.6375 37.9204C17.5784 35.4459 20.4524 32.4363 20.4524 28.6242C20.4524 26.4172 19.7172 24.1433 17.7789 24.1433C15.7738 24.1433 14.5707 26.1497 14.5039 28.3567ZM11.6298 40.328L11.4961 33.2389C9.69152 35.5127 7.08483 37.3854 4.94602 39.4586C4.07712 40.328 3.67609 42 2.33933 42C1.47044 42 0.802057 41.2643 0.802057 40.328L0 0.53503C0.534704 0.200635 1.20308 -1.49012e-06 1.80463 -1.49012e-06C2.40617 -1.49012e-06 3.07455 0.200635 3.60925 0.53503L3.14139 23.6083C4.27764 22.2038 6.01542 21.3344 7.82005 21.3344C9.15681 21.3344 10.3599 21.8694 11.2956 22.7389L10.8278 0.53503C11.3625 0.200635 12.0308 -1.49012e-06 12.6324 -1.49012e-06C13.2339 -1.49012e-06 13.9023 0.200635 14.437 0.53503L14.036 23.6083C15.6401 22.2038 17.7121 21.3344 19.8509 21.3344C23.3933 21.3344 26 24.4777 26 28.0892C26 33.4395 20.2519 35.9809 16.1748 39.4586C15.1722 40.328 14.6375 42 13.2339 42C12.365 42 11.6298 41.2643 11.6298 40.328ZM2.94087 32.8376V33.5064C2.94087 35.0446 3.00771 36.5159 3.20823 38.0541C5.81491 35.5127 7.95373 32.3026 7.95373 28.6242C7.95373 26.4841 7.5527 24.1433 5.74807 24.1433C3.87661 24.1433 3.14139 26.2834 3.07455 28.3567L2.94087 32.8376Z" fill="black"/>
</g>
<defs>
<clipPath id="clip0_32_13">
<rect width="26" height="42" fill="white"/>
</clipPath>
</defs>
</svg>
