<svg width="56" height="66" viewBox="0 0 56 66" fill="none" xmlns="http://www.w3.org/2000/svg">
<path d="M19.9564 0.0119171C13.4392 0.426926 7.7981 3.10656 4.34993 7.4155C2.78723 9.37784 1.79838 11.6271 1.40899 14.1223C1.27577 14.9574 1.24503 17.0427 1.35263 17.9137C1.60368 19.9785 2.29024 21.7206 3.32009 22.9144C4.59586 24.4002 6.9732 25.553 9.4274 25.886C10.155 25.9834 11.6562 25.9783 12.3427 25.8809C15.3759 25.4352 17.6047 23.7751 18.4142 21.3465C18.6704 20.5729 18.7267 20.163 18.7267 19.0922C18.7267 18.2365 18.7062 18.0162 18.6089 17.5653C18.2707 16.0539 17.6047 14.7781 16.6568 13.8149C15.7807 12.9285 14.7867 12.37 13.68 12.1446C13.0754 12.0267 11.8918 12.0677 10.4521 12.2675C9.02264 12.4674 8.38731 12.5084 7.84421 12.4315C6.79388 12.288 6.2559 11.8577 5.90237 10.8842C5.78453 10.5563 5.76404 10.4333 5.76916 9.89532C5.76916 9.36247 5.78966 9.22926 5.91262 8.8706C6.80925 6.26782 10.4214 3.79313 14.9609 2.67106C18.1324 1.89227 21.1809 2.04598 23.7222 3.11681C25.7665 3.97757 27.5444 5.50953 28.9124 7.58971C29.4043 8.34287 30.1882 9.91581 30.5315 10.8432C31.9097 14.5834 32.3042 19.1332 31.6894 24.2158C30.7005 32.3623 27.4266 39.6173 21.7804 46.196C17.6149 51.0378 12.3478 55.4594 3.91955 61.1722C2.29024 62.2789 1.78813 62.6581 1.16305 63.2575C0.374022 64.0107 0 64.6204 0 65.1379C0 65.3633 0.0307415 65.4248 0.189573 65.5068C0.778785 65.8142 3.19712 64.7331 7.63415 62.1816C9.83729 60.9109 16.4365 56.9709 17.8557 56.0691C26.3609 50.6893 32.2222 45.6272 36.3775 40.0733C40.338 34.7857 42.5309 29.4316 43.1201 23.6009C43.2431 22.4276 43.2431 19.9734 43.1201 18.8872C42.5821 13.9378 40.7069 9.82359 37.479 6.49838C33.9335 2.84014 29.2506 0.657486 23.6966 0.0836411C23.1689 0.0272827 20.5046 -0.0239487 19.9564 0.0119171Z" fill="black"/>
<path d="M50.1343 6.56499C47.8851 6.98512 46.3326 9.04993 46.5785 11.3043C46.7476 12.8619 47.6647 14.1428 49.0993 14.814C49.6629 15.0804 50.0062 15.1572 50.7799 15.1829C51.3793 15.2085 51.5382 15.1931 51.9224 15.0958C54.6277 14.4194 56.0213 11.5502 54.8736 9.01406C54.5713 8.34287 53.9053 7.59483 53.2392 7.16444C52.3733 6.60085 51.1693 6.37029 50.1343 6.56499Z" fill="black"/>
<path d="M50.1343 24.7025C48.4179 25.0202 47.0755 26.2959 46.6708 27.997C46.5222 28.6016 46.5273 29.4623 46.6708 30.031C46.9782 31.23 47.8133 32.2957 48.879 32.8439C49.5758 33.2077 49.9243 33.2948 50.7492 33.3204C51.3794 33.346 51.5279 33.3358 51.9276 33.2333C53.4544 32.8541 54.5867 31.7987 55.0683 30.3128C55.5602 28.7962 55.1862 27.1721 54.0641 25.9988C53.854 25.7785 53.521 25.4915 53.3263 25.3583C52.3989 24.7435 51.2154 24.5027 50.1343 24.7025Z" fill="black"/>
</svg>
