<svg width="18" height="43" viewBox="0 0 18 43" fill="none" xmlns="http://www.w3.org/2000/svg">
<path fill-rule="evenodd" clip-rule="evenodd" d="M2.87394 27.5058L2.97748 38.9417C4.15098 38.039 4.16823 37.8045 5.28996 36.9942C6.42031 35.9352 7.171 35.4022 8.46529 34.1513C9.75959 32.9003 10.7346 31.5286 11.2006 30.2351C11.6665 28.9415 11.4939 28.5008 11.2178 27.5769C10.9417 26.6529 10.3722 25.9564 9.56976 25.5655C8.75867 25.1746 7.74049 25.1035 6.61876 25.3451C5.54881 25.6508 5.16915 25.7716 4.03017 26.5889C3.52971 27.0012 3.45206 27.0794 2.87394 27.5058ZM0.0782597 0.0355524C1.18272 1.52588e-05 1.69181 0.0710896 2.79628 1.52588e-05C2.83942 0.980842 2.82217 25.1106 2.79628 25.1177C4.71184 24.0374 4.51338 24.0232 6.42893 23.4261C8.33586 22.8291 10.2169 22.5946 11.8822 22.7651C13.5389 22.9286 14.9195 23.483 15.8859 24.3714C16.8523 25.2599 17.9913 26.5463 17.9999 27.918C18.0086 29.2898 17.1543 31.024 15.9549 32.1825C14.3155 33.7603 12.3827 35.0041 10.1479 36.2835C7.94758 37.5415 5.89396 38.8351 4.25452 40.0433C2.66685 41.1094 1.90753 41.7065 0.121403 43C0.0782597 41.806 -0.00802666 40.4769 0.000601971 39.5387L0.0782597 0.0355524Z" fill="black"/>
</svg>
