<svg width="14" height="42" viewBox="0 0 14 42" fill="none" xmlns="http://www.w3.org/2000/svg">
<path fill-rule="evenodd" clip-rule="evenodd" d="M2.23528 26.8661L2.31582 38.036C3.22854 37.1544 3.24196 36.9253 4.11441 36.1339C4.99357 35.0995 5.57744 34.5788 6.58412 33.357C7.59079 32.1352 8.34915 30.7954 8.71155 29.5319C9.07396 28.2684 8.93973 27.838 8.72498 26.9355C8.51022 26.0331 8.06728 25.3527 7.44314 24.9709C6.8123 24.5891 6.02038 24.5197 5.14793 24.7557C4.31574 25.0542 4.02045 25.1722 3.13458 25.9706C2.74533 26.3732 2.68493 26.4496 2.23528 26.8661ZM0.0608686 0.0347107C0.919897 0 1.31586 0.0694215 2.17488 0C2.20844 0.958017 2.19502 24.5266 2.17488 24.5336C3.66476 23.4783 3.5104 23.4645 5.00028 22.8813C6.48345 22.2982 7.94648 22.0691 9.24174 22.2357C10.5303 22.3954 11.6041 22.9369 12.3557 23.8046C13.1074 24.6724 13.9932 25.9289 13.9999 27.2688C14.0067 28.6086 13.3423 30.3025 12.4094 31.4341C11.1343 32.9752 9.63098 34.1901 7.89279 35.4397C6.18145 36.6684 4.58419 37.9319 3.30907 39.1121C2.07422 40.1534 1.48363 40.7365 0.0944244 42C0.0608686 40.8337 -0.00624296 39.5355 0.000468199 38.6192L0.0608686 0.0347107Z" fill="black"/>
</svg>
