<svg width="48" height="137" viewBox="0 0 48 137" fill="none" xmlns="http://www.w3.org/2000/svg">
<path d="M33.897 0.192596C32.1225 0.759155 29.7707 2.85432 28.0925 5.34503C27.2052 6.65985 25.5483 9.93089 24.7359 11.994C22.9507 16.5371 22.1062 20.7809 21.978 25.9654C21.8818 29.7068 22.1169 32.903 22.9187 38.8892C23.3356 42.0213 23.3462 42.1496 23.1538 42.3206C23.0469 42.4168 21.9566 43.3468 20.7166 44.373C11.8548 51.7703 7.25829 56.7731 3.89104 62.7058C1.93483 66.1586 0.620001 70.1565 0.128276 74.1224C-0.0427587 75.4693 -0.0427587 78.58 0.128276 80.0552C0.598622 84.2348 2.03104 88.4893 4.12621 91.9742C5.60139 94.4328 8.13484 97.319 10.4011 99.1255C14.6769 102.525 19.5835 104.684 24.2121 105.187C25.5697 105.336 29.4287 105.24 30.7114 105.037C31.2138 104.951 31.6414 104.898 31.6521 104.919C31.6735 104.93 32.1011 107.966 32.6035 111.665L33.5121 118.378L33.5335 120.89C33.5442 123.551 33.4801 124.214 32.9883 125.967C31.8552 130.072 28.9476 132.766 24.8 133.557C23.699 133.771 21.3152 133.76 20.1073 133.557C18.0655 133.194 16.398 132.445 15.3718 131.43L14.7304 130.788L15.8528 130.703C19.22 130.436 21.2938 129.249 22.4269 126.951C22.9828 125.818 23.1538 124.856 23.0897 123.188C22.9935 120.761 22.3307 119.126 20.8235 117.629C19.8721 116.678 19.1452 116.208 17.9693 115.78C17.2638 115.524 17.05 115.491 15.6924 115.491C14.5059 115.491 14.0783 115.534 13.608 115.695C11.0211 116.582 9.12898 118.474 8.27381 121.05C7.81415 122.418 7.68588 123.391 7.7607 124.898C7.98519 129.26 10.5186 133.151 14.4631 135.193C15.6497 135.813 16.74 136.197 18.2473 136.518C19.6583 136.817 23.0576 136.849 24.5542 136.571C28.9476 135.738 32.0904 133.835 34.1001 130.767C36.2594 127.475 36.7725 123.755 35.9066 117.522C34.9873 110.82 34.1214 104.299 34.1535 104.278C34.1749 104.257 34.5704 104.118 35.0408 103.957C38.2263 102.835 41.4332 100.665 43.4856 98.2169C46.8315 94.2297 48.3494 89.2483 47.9325 83.6148C47.6866 80.2797 47.088 77.9493 45.8266 75.4052C44.6187 72.9572 42.9404 70.9369 40.8132 69.3334C39.7335 68.521 37.5208 67.3772 36.2166 66.9603C34.2604 66.3189 31.759 65.9876 29.9952 66.1158C29.0225 66.18 29.0118 66.18 28.9583 65.9341C28.9263 65.7951 28.7232 64.3734 28.5201 62.7913C28.3063 61.1986 27.9 58.1306 27.6007 55.95L27.0663 51.9948L27.3656 51.7382C28.3383 50.9151 31.5238 47.8899 32.8601 46.5323C38.269 40.9951 40.8987 35.4365 41.7752 27.6758C42.3846 22.2026 42.4166 18.6002 41.8715 14.6878C41.1446 9.41779 39.648 5.02434 37.5849 2.10605C36.1632 0.0857086 35.4256 -0.299118 33.897 0.192596ZM36.9328 12.2612C38.0018 12.7316 38.7714 13.7792 39.1135 15.2437C39.3166 16.1202 39.338 18.1833 39.1563 19.3913C38.7287 22.3202 37.1787 26.4785 35.479 29.2792C33.9076 31.8447 30.8397 35.5434 28.4025 37.7775C26.6494 39.3916 25.5804 40.3216 25.5376 40.2789C25.4949 40.2361 25.2704 38.7075 25.0459 36.9437C24.5007 32.6037 24.7787 28.7875 25.9438 24.7682C27.3549 19.9471 29.2469 16.3019 31.5666 13.993C32.7211 12.8492 33.3945 12.4002 34.4528 12.1009C35.0942 11.9192 36.3021 11.994 36.9328 12.2612ZM25.7835 60.5038L26.6066 66.6717L26.008 66.8534C23.56 67.6124 20.5883 69.6007 18.8245 71.6531C16.1414 74.7852 14.6555 78.441 14.4952 82.3C14.3349 86.3941 15.7993 90.3493 18.4718 93.0538C20.0004 94.6145 21.7428 95.598 23.5707 95.9614C24.3297 96.1111 24.4152 96.1111 24.6611 95.94C24.9818 95.7369 25.0245 95.3414 24.768 95.0742C24.6718 94.978 24.2976 94.7535 23.9342 94.5717C21.2725 93.2355 19.5407 90.841 18.9956 87.7197C18.2152 83.2835 20.9197 78.3341 25.1849 76.3672C25.9011 76.0359 27.6863 75.4907 27.7718 75.5869C27.7825 75.5976 28.5949 81.6052 29.5676 88.9276C30.7756 97.9924 31.2994 102.258 31.2245 102.3C31.1604 102.343 30.6259 102.45 30.0273 102.546C26.9914 103.006 23.8166 103.038 21.6893 102.61C17.328 101.745 12.6245 99.0187 9.9414 95.7797C6.68105 91.8673 5.15242 87.8159 5.15242 83.1338C5.15242 80.6003 5.4838 78.5907 6.28553 76.1534C7.77139 71.621 10.1979 67.9331 14.7838 63.2403C17.6166 60.3327 24.8535 53.8548 24.9283 54.1648C24.9497 54.261 25.3345 57.1151 25.7835 60.5038ZM32.1545 75.6296C33.929 75.9717 35.9494 76.8483 37.3604 77.9172C38.3759 78.6869 39.8725 80.3117 40.4711 81.3059C41.9142 83.711 42.438 85.8917 42.3311 89.0879C42.2028 93.2676 40.9201 96.4424 38.408 98.8049C37.2642 99.8845 35.0621 101.221 34.0145 101.488L33.7473 101.552L33.4587 99.3821C33.2983 98.1849 32.8814 95.0955 32.5287 92.5086C30.6794 78.7831 30.2838 75.8114 30.2838 75.5976C30.2838 75.3731 30.3159 75.3624 30.797 75.4158C31.0749 75.4479 31.6842 75.5441 32.1545 75.6296Z" fill="black"/>
</svg>
