<svg width="10" height="41" viewBox="0 0 10 41" fill="none" xmlns="http://www.w3.org/2000/svg">
<path d="M0 0.375654C0.43956 0.160994 0.934066 -9.53674e-07 1.42857 -9.53674e-07C1.92308 -9.53674e-07 2.36264 0.160994 2.8022 0.375654L2.63736 10.1963L8.46154 9.12304H8.62637C9.17582 9.12304 9.61539 9.49869 9.61539 10.0353L10 40.6243C9.56044 40.839 9.12088 41 8.62637 41C8.13187 41 7.69231 40.839 7.25275 40.6243L7.41758 30.8037L1.59341 31.877H1.42857C0.879121 31.877 0.43956 31.5013 0.43956 30.9647L0 0.375654ZM7.63736 14.4895L2.58242 15.4018L2.41758 26.5105L7.47253 25.5982L7.63736 14.4895Z" fill="black"/>
</svg>
