<svg width="26" height="52" viewBox="0 0 26 52" fill="none" xmlns="http://www.w3.org/2000/svg">
<path fill-rule="evenodd" clip-rule="evenodd" d="M0.118399 20.791C0.190211 20.6924 0.279982 20.6028 0.396677 20.549L5.3249 18.1552V7.61172C5.3249 7.53103 5.35183 7.45931 5.38774 7.38759C5.43262 7.31586 5.48648 7.26207 5.54932 7.22621C5.62113 7.18138 5.70192 7.16345 5.77374 7.16345H7.56011C7.64089 7.16345 7.72169 7.18138 7.78452 7.22621C7.85634 7.26207 7.9102 7.31586 7.95508 7.38759C7.99099 7.45931 8.00894 7.53103 8.00894 7.61172V16.8462L17.1472 12.4083V0.448276C17.1472 0.367586 17.1742 0.295862 17.2101 0.224138C17.255 0.152414 17.3088 0.0986207 17.3717 0.0627586C17.4435 0.017931 17.5243 0 17.5961 0H19.3825C19.4632 0 19.544 0.017931 19.6069 0.0627586C19.6787 0.0986207 19.7325 0.152414 19.7774 0.224138C19.8133 0.295862 19.8313 0.367586 19.8313 0.448276V11.0993L23.5028 9.31517C23.6105 9.26138 23.7362 9.24345 23.8618 9.24345C23.9785 9.25241 24.0952 9.29724 24.203 9.36897C24.3017 9.43172 24.3825 9.53034 24.4364 9.63793H24.4274L25.6572 12.1483C25.711 12.2559 25.738 12.3814 25.729 12.5069C25.72 12.6234 25.6751 12.74 25.6123 12.8476C25.5405 12.9462 25.4507 13.0269 25.334 13.0807L19.8313 15.7434V29.0393L23.7721 27.1207C23.8798 27.0669 24.0055 27.049 24.1311 27.049C24.2478 27.0579 24.3645 27.1028 24.4723 27.1745C24.571 27.2372 24.6518 27.3359 24.7057 27.4434H24.6967L25.9265 29.9538C25.9803 30.0614 26.0073 30.1869 25.9983 30.3124C25.9893 30.429 25.9444 30.5455 25.8816 30.6531C25.8098 30.7517 25.72 30.8324 25.6033 30.8862L19.8313 33.6924V44.3883C19.8313 44.469 19.8133 44.5407 19.7774 44.6124C19.7325 44.6841 19.6787 44.7379 19.6069 44.7738C19.544 44.8186 19.4632 44.8366 19.3825 44.8366H17.5961C17.5243 44.8366 17.4435 44.8186 17.3717 44.7738C17.3088 44.7379 17.255 44.6841 17.2101 44.6124C17.1742 44.5407 17.1472 44.469 17.1472 44.3883V35.0014L8.00894 39.4393V51.5517C8.00894 51.6324 7.99099 51.7041 7.95508 51.7759C7.9102 51.8476 7.85634 51.9014 7.78452 51.9372C7.72169 51.9821 7.64089 52 7.56011 52H5.77374C5.70192 52 5.62113 51.9821 5.54932 51.9372C5.48648 51.9014 5.43262 51.8476 5.38774 51.7759C5.35183 51.7041 5.3249 51.6324 5.3249 51.5517V40.7483L2.49723 42.12C2.38951 42.1738 2.26383 42.2007 2.14714 42.1917C2.02147 42.1828 1.90477 42.1379 1.80602 42.0752C1.6983 42.0034 1.61751 41.9138 1.56365 41.7972L0.342817 39.2869C0.288957 39.1793 0.262026 39.0628 0.271003 38.9372C0.279979 38.8117 0.324865 38.6952 0.3877 38.5966C0.459513 38.4979 0.549283 38.4083 0.665979 38.3545L5.3249 36.0952V22.8083L2.22793 24.3145C2.12021 24.3683 1.99453 24.3952 1.87784 24.3862C1.75217 24.3772 1.63546 24.3324 1.53672 24.2697C1.429 24.1979 1.34821 24.1083 1.29435 23.9917L0.0735149 21.4814C0.0196555 21.3738 -0.00727547 21.2572 0.00170109 21.1317C0.0106777 21.0062 0.0555628 20.8897 0.118399 20.791ZM8.00894 21.4993V34.7862L17.1472 30.3483V17.0614L8.00894 21.4993Z" fill="black"/>
</svg>
