<svg width="18" height="49" viewBox="0 0 18 49" fill="none" xmlns="http://www.w3.org/2000/svg">
<path fill-rule="evenodd" clip-rule="evenodd" d="M0.0819681 19.5916C0.131684 19.4986 0.193833 19.4142 0.274622 19.3635L3.68647 17.1078V7.1726C3.68647 7.09657 3.70511 7.02898 3.72997 6.96139C3.76104 6.89381 3.79833 6.84312 3.84184 6.80933C3.89155 6.76708 3.94749 6.75019 3.9972 6.75019H5.23392C5.28985 6.75019 5.34578 6.76708 5.38928 6.80933C5.439 6.84312 5.47629 6.89381 5.50736 6.96139C5.53222 7.02898 5.54465 7.09657 5.54465 7.1726V15.8743L11.8712 11.6924V0.422429C11.8712 0.346395 11.8898 0.278808 11.9147 0.211222C11.9457 0.143636 11.983 0.0929463 12.0265 0.0591532C12.0763 0.0169118 12.1322 1.52588e-05 12.1819 1.52588e-05H13.4186C13.4746 1.52588e-05 13.5305 0.0169118 13.574 0.0591532C13.6237 0.0929463 13.661 0.143636 13.6921 0.211222C13.7169 0.278808 13.7294 0.346395 13.7294 0.422429V10.459L16.2711 8.77777C16.3457 8.72708 16.4327 8.71019 16.5197 8.71019C16.6005 8.71864 16.6813 8.76088 16.7559 8.82846C16.8242 8.8876 16.8802 8.98053 16.9175 9.08191H16.9113L17.7627 11.4474C17.8 11.5488 17.8186 11.6671 17.8124 11.7854C17.8062 11.8952 17.7751 12.005 17.7316 12.1064C17.6819 12.1993 17.6197 12.2754 17.5389 12.3261L13.7294 14.8352V27.364L16.4576 25.5561C16.5322 25.5054 16.6192 25.4885 16.7062 25.4885C16.787 25.4969 16.8678 25.5392 16.9423 25.6067C17.0107 25.6659 17.0666 25.7588 17.1039 25.8602H17.0977L17.9491 28.2257C17.9864 28.3271 18.005 28.4454 17.9988 28.5636C17.9926 28.6735 17.9615 28.7833 17.918 28.8847C17.8683 28.9776 17.8062 29.0536 17.7254 29.1043L13.7294 31.7486V41.8274C13.7294 41.9035 13.7169 41.9711 13.6921 42.0386C13.661 42.1062 13.6237 42.1569 13.574 42.1907C13.5305 42.2329 13.4746 42.2498 13.4186 42.2498H12.1819C12.1322 42.2498 12.0763 42.2329 12.0265 42.1907C11.983 42.1569 11.9457 42.1062 11.9147 42.0386C11.8898 41.9711 11.8712 41.9035 11.8712 41.8274V32.9821L5.54465 37.164V48.5776C5.54465 48.6536 5.53222 48.7212 5.50736 48.7888C5.47629 48.8564 5.439 48.9071 5.38928 48.9409C5.34578 48.9831 5.28985 49 5.23392 49H3.9972C3.94749 49 3.89155 48.9831 3.84184 48.9409C3.79833 48.9071 3.76104 48.8564 3.72997 48.7888C3.70511 48.7212 3.68647 48.6536 3.68647 48.5776V38.3974L1.72885 39.69C1.65428 39.7407 1.56727 39.766 1.48648 39.7576C1.39948 39.7492 1.31868 39.7069 1.25032 39.6478C1.17575 39.5802 1.11982 39.4957 1.08253 39.3859L0.237335 37.0204C0.200047 36.919 0.181403 36.8092 0.187617 36.6909C0.193832 36.5726 0.224906 36.4628 0.268408 36.3698C0.318124 36.2769 0.380273 36.1924 0.461062 36.1417L3.68647 34.0128V21.4924L1.54241 22.9117C1.46784 22.9624 1.38083 22.9878 1.30004 22.9793C1.21304 22.9709 1.13224 22.9286 1.06388 22.8695C0.989309 22.8019 0.933375 22.7174 0.896088 22.6076L0.0508949 20.2421C0.0136076 20.1407 -0.00503693 20.0309 0.00117762 19.9126C0.00739216 19.7943 0.0384665 19.6845 0.0819681 19.5916ZM5.54465 20.259V32.7793L11.8712 28.5974V16.0771L5.54465 20.259Z" fill="black"/>
</svg>
